<?xml version="1.0" encoding="utf-8"?>
<!-- Generator: Adobe Illustrator 19.0.0, SVG Export Plug-In . SVG Version: 6.00 Build 0)  -->
<svg version="1.1" id="Capa_1" xmlns="http://www.w3.org/2000/svg" xmlns:xlink="http://www.w3.org/1999/xlink" x="0px" y="0px"
	 viewBox="-272 395.9 51 51" style="enable-background:new -272 395.9 51 51;" xml:space="preserve">
<style type="text/css">
	.st0{fill:none;stroke:#6D6D6D;stroke-width:3;}
</style>
<g id="XMLID_226_">
	<g id="XMLID_233_">
		<circle id="XMLID_235_" class="st0" cx="-246.6" cy="415.5" r="7.1"/>
		<path id="XMLID_234_" class="st0" d="M-239.7,423.4h-2.2c-1.3,1.1-2.9,1.8-4.8,1.8c-1.8,0-3.5-0.7-4.8-1.8h-2.2
			c-3,0-9.1,3.9-9.1,6.7v1c0,2.8,2.4,5,5.4,5h21.2c3,0,5.4-2.2,5.4-5v-1C-230.6,427.3-236.7,423.4-239.7,423.4z"/>
	</g>
	<g id="XMLID_230_">
		<circle id="XMLID_232_" class="st0" cx="-230" cy="411.6" r="3.9"/>
		<path id="XMLID_231_" class="st0" d="M-226.1,415.9h-1.2c-0.7,0.6-1.6,1-2.6,1s-1.9-0.4-2.6-1h-1.2c-1.7,0-5,2.2-5,3.7v0.6
			c0,0.5,0.2,1,0.5,1.5c1.1,0,2.5,0.6,3.9,1.3h10.4c1.7,0,3-1.2,3-2.8v-0.6C-221,418.1-224.4,415.9-226.1,415.9z"/>
	</g>
	<g id="XMLID_227_">
		<circle id="XMLID_229_" class="st0" cx="-263.1" cy="411.6" r="3.9"/>
		<path id="XMLID_228_" class="st0" d="M-266.9,415.9h1.2c0.7,0.6,1.6,1,2.6,1c1,0,1.9-0.4,2.6-1h1.2c1.7,0,5,2.2,5,3.7v0.6
			c0,0.5-0.2,1-0.5,1.5c-1.1,0-2.5,0.6-3.9,1.3H-269c-1.7,0-3-1.2-3-2.8v-0.6C-272,418.1-268.6,415.9-266.9,415.9z"/>
	</g>
</g>
</svg>
