<?xml version="1.0" encoding="utf-8"?>
<!-- Generator: Adobe Illustrator 19.0.0, SVG Export Plug-In . SVG Version: 6.00 Build 0)  -->
<svg version="1.1" id="Layer_1" xmlns="http://www.w3.org/2000/svg" xmlns:xlink="http://www.w3.org/1999/xlink" x="0px" y="0px"
	 viewBox="-66 190 461.9 461.9" style="enable-background:new -66 190 461.9 461.9;" xml:space="preserve">
<style type="text/css">
	.st0{fill:#6D6D6D;}
</style>
<g>
	<g>
		<path class="st0" d="M388.4,408L174.2,193.8c-5.1-5.1-13.4-5.1-18.5,0L-58.5,408c-3.7,3.7-4.9,9.4-2.8,14.3s6.8,8.1,12.1,8.1h25.4
			v189.5c0,17.7,14.3,32,32,32h101.3V545.2c0-7.2,5.9-13.1,13.1-13.1h84.5c7.2,0,13.1,5.9,13.1,13.1v106.7h101.3
			c17.7,0,32-14.3,32-32V430.4h25.4c5.3,0,10.1-3.2,12.1-8.1C393.3,417.4,392.1,411.7,388.4,408z"/>
	</g>
</g>
</svg>
